<?xml version="1.0" encoding="utf-8"?>
<!-- Generator: Moho 13.0.2 build 610 -->
<!DOCTYPE svg PUBLIC "-//W3C//DTD SVG 1.1//EN" "http://www.w3.org/Graphics/SVG/1.1/DTD/svg11.dtd">
<svg version="1.1" id="Frame_1" xmlns="http://www.w3.org/2000/svg" xmlns:xlink="http://www.w3.org/1999/xlink" width="720px" height="720px">
<g id="Layer_1">
<path fill="none" stroke="#00883a" stroke-width="100" stroke-linecap="round" stroke-linejoin="round" d="M 585.671 105.169 C 462.038 105.169 214.810 105.169 214.772 105.169 C 214.762 105.178 113.402 196.649 113.392 196.658 C 113.392 196.688 113.392 495.820 113.392 495.850 C 113.403 495.859 219.707 592.275 219.718 592.284 C 219.743 592.284 471.905 592.284 471.930 592.284 C 471.942 592.273 588.132 478.555 588.143 478.544 C 588.143 478.519 588.143 231.298 588.143 231.273 C 588.109 231.273 244.477 231.273 244.442 231.273 C 244.441 231.275 234.552 251.054 234.551 251.056 C 234.551 251.075 234.551 441.433 234.551 441.452 C 234.555 441.455 276.584 473.595 276.588 473.598 C 276.602 473.598 419.988 473.598 420.002 473.598 C 420.006 473.593 464.508 426.620 464.512 426.615 C 464.512 426.608 464.512 349.971 464.512 349.963 C 464.500 349.963 387.034 349.963 348.295 349.963 "/>
</g>
</svg>
