<?xml version="1.0" encoding="utf-8"?>
<!-- Generator: Moho 13.0.2 build 610 -->
<!DOCTYPE svg PUBLIC "-//W3C//DTD SVG 1.1//EN" "http://www.w3.org/Graphics/SVG/1.1/DTD/svg11.dtd">
<svg version="1.1" id="Frame_1" xmlns="http://www.w3.org/2000/svg" xmlns:xlink="http://www.w3.org/1999/xlink" width="720px" height="720px">
<g id="Layer_1">
<path fill="none" stroke="#00883a" stroke-width="40" stroke-linecap="round" stroke-linejoin="round" d="M 134.293 639.561 C 134.293 639.526 134.293 285.249 134.293 285.214 C 134.337 285.214 577.857 285.214 577.901 285.214 C 577.901 285.249 577.901 639.526 577.901 639.561 C 577.857 639.561 134.337 639.561 134.293 639.561 "/>
<path fill="none" stroke="#00883a" stroke-width="40" stroke-linecap="round" stroke-linejoin="round" d="M 58.360 285.214 C 58.390 285.192 356.067 69.848 356.097 69.827 C 356.127 69.848 653.805 285.192 653.834 285.214 C 653.775 285.214 58.419 285.214 58.360 285.214 "/>
<path fill="none" stroke="#00883a" stroke-width="40" stroke-linecap="round" stroke-linejoin="round" d="M 218.824 640.133 C 218.824 640.112 218.824 426.980 218.824 426.959 C 218.835 426.959 336.998 426.959 337.009 426.959 C 337.009 426.980 337.009 640.112 337.009 640.133 C 336.998 640.133 218.835 640.133 218.824 640.133 "/>
<path fill="none" stroke="#00883a" stroke-width="40" stroke-linecap="round" stroke-linejoin="round" d="M 393.148 491.168 C 393.148 491.158 393.148 396.148 393.148 396.138 C 393.160 396.138 517.231 396.138 517.243 396.138 C 517.243 396.148 517.243 491.158 517.243 491.168 C 517.231 491.168 393.160 491.168 393.148 491.168 "/>
</g>
</svg>
