<?xml version="1.0" encoding="utf-8"?>
<!-- Generator: Moho 13.0.2 build 610 -->
<!DOCTYPE svg PUBLIC "-//W3C//DTD SVG 1.1//EN" "http://www.w3.org/Graphics/SVG/1.1/DTD/svg11.dtd">
<svg version="1.1" id="Frame_1" xmlns="http://www.w3.org/2000/svg" xmlns:xlink="http://www.w3.org/1999/xlink" width="720px" height="720px">
<g id="Layer_1">
<path fill="none" stroke="#00883a" stroke-width="40" stroke-linecap="round" stroke-linejoin="round" d="M 148.533 562.033 C 148.533 562.008 147.352 310.481 147.352 310.455 C 147.394 310.455 571.955 310.455 571.998 310.455 C 571.997 310.481 570.522 570.015 570.522 570.041 C 570.508 570.048 483.948 633.712 440.307 644.981 C 389.413 658.124 315.123 656.829 265.150 640.528 C 225.057 627.449 148.544 562.041 148.533 562.033 "/>
<path fill="none" stroke="#00883a" stroke-width="40" stroke-linecap="round" stroke-linejoin="round" d="M 216.486 301.809 C 195.704 7.615 516.918 1.590 498.728 297.124 "/>
<path fill="none" stroke="#00883a" stroke-width="40" stroke-linecap="round" stroke-linejoin="round" d="M 325.193 418.821 C 325.193 399.373 341.182 383.300 361.504 383.300 C 381.827 383.300 397.815 399.373 397.815 418.821 C 397.815 438.269 381.827 454.342 361.504 454.342 C 341.182 454.342 325.193 438.270 325.193 418.821 "/>
<path fill="none" stroke="#00883a" stroke-width="40" stroke-linecap="round" stroke-linejoin="round" d="M 380.204 464.578 C 380.200 464.578 339.601 462.496 339.597 462.496 C 339.594 462.508 312.528 580.141 312.525 580.153 C 312.535 580.153 409.348 579.112 409.358 579.111 C 409.355 579.100 380.207 464.590 380.204 464.578 "/>
</g>
</svg>
