<?xml version="1.0" encoding="utf-8"?>
<!-- Generator: Moho 13.0.2 build 610 -->
<!DOCTYPE svg PUBLIC "-//W3C//DTD SVG 1.1//EN" "http://www.w3.org/Graphics/SVG/1.1/DTD/svg11.dtd">
<svg version="1.1" id="Frame_1" xmlns="http://www.w3.org/2000/svg" xmlns:xlink="http://www.w3.org/1999/xlink" width="720px" height="720px">
<g id="Layer_1">
<path fill="none" stroke="#00883a" stroke-width="40" stroke-linecap="round" stroke-linejoin="round" d="M 97.211 307.818 C 97.231 307.818 236.952 317.801 295.867 308.808 C 334.636 302.890 395.014 300.178 420.932 270.744 C 441.607 247.264 454.544 196.741 441.195 168.446 C 429.160 142.934 387.248 121.277 359.073 122.649 C 340.502 123.553 306.485 155.436 306.480 155.439 "/>
<path fill="none" stroke="#00883a" stroke-width="40" stroke-linecap="round" stroke-linejoin="round" d="M 91.733 380.074 C 91.776 380.075 483.958 377.032 529.397 392.375 C 557.313 401.801 612.630 422.770 623.948 454.825 C 640.637 502.090 605.150 582.678 563.521 610.598 C 543.706 623.888 505.687 626.572 484.190 616.222 C 468.844 608.834 450.325 570.664 450.322 570.659 "/>
<path fill="none" stroke="#00883a" stroke-width="40" stroke-linecap="round" stroke-linejoin="round" d="M 97.860 441.417 C 97.876 441.418 210.889 435.853 258.378 443.868 C 279.858 447.493 310.628 451.759 327.795 465.166 C 344.042 477.854 362.754 503.267 363.511 523.867 C 364.258 544.173 350.270 573.928 332.743 584.209 C 313.528 595.480 277.624 592.043 258.582 580.483 C 245.559 572.576 231.246 537.688 231.243 537.684 "/>
</g>
</svg>
