<?xml version="1.0" encoding="utf-8"?>
<!-- Generator: Moho 13.0.2 build 610 -->
<!DOCTYPE svg PUBLIC "-//W3C//DTD SVG 1.1//EN" "http://www.w3.org/Graphics/SVG/1.1/DTD/svg11.dtd">
<svg version="1.1" id="Frame_1" xmlns="http://www.w3.org/2000/svg" xmlns:xlink="http://www.w3.org/1999/xlink" width="720px" height="720px">
<g id="Layer_1">
<path fill="none" stroke="#00883a" stroke-width="40" stroke-linecap="round" stroke-linejoin="round" d="M 430.145 71.188 C 430.132 71.188 289.398 73.442 289.383 73.442 C 289.383 73.481 289.383 457.633 289.383 457.672 C 289.378 457.683 223.822 531.250 232.947 567.021 C 244.882 613.811 322.380 653.192 370.592 650.466 C 414.202 647.999 478.462 605.840 486.990 563.001 C 493.955 528.018 430.150 458.582 430.145 458.572 C 430.145 458.564 430.145 414.290 430.145 378.382 C 430.145 349.580 430.144 317.311 430.144 285.974 C 430.144 251.092 430.144 216.931 430.144 186.738 C 430.144 122.460 430.144 71.204 430.145 71.188 "/>
<path fill="none" stroke="#00883a" stroke-width="40" stroke-linecap="round" stroke-linejoin="round" d="M 369.882 186.852 C 389.970 186.814 410.057 186.776 430.144 186.738 C 430.144 122.460 430.144 71.204 430.145 71.188 C 430.132 71.188 289.398 73.442 289.383 73.442 C 289.383 73.481 289.383 457.633 289.383 457.672 C 289.378 457.683 223.822 531.250 232.947 567.021 C 244.882 613.811 322.380 653.192 370.592 650.466 C 414.202 647.999 478.462 605.840 486.990 563.001 C 493.955 528.018 430.150 458.582 430.145 458.572 C 430.145 458.564 430.145 414.290 430.145 378.382 C 430.145 349.580 430.144 317.311 430.144 285.974 C 430.144 251.092 430.144 216.931 430.144 186.738 "/>
<path fill="none" stroke="#00883a" stroke-width="40" stroke-linecap="round" stroke-linejoin="round" d="M 369.882 186.852 C 389.970 186.814 410.057 186.776 430.144 186.738 C 430.144 122.460 430.144 71.204 430.145 71.188 C 430.132 71.188 289.398 73.442 289.383 73.442 C 289.383 73.481 289.383 457.633 289.383 457.672 C 289.378 457.683 223.822 531.250 232.947 567.021 C 244.882 613.811 322.380 653.192 370.592 650.466 C 414.202 647.999 478.462 605.840 486.990 563.001 C 493.955 528.018 430.150 458.582 430.145 458.572 C 430.145 458.564 430.145 414.290 430.145 378.382 C 430.145 349.580 430.144 317.311 430.144 285.974 C 407.492 285.960 384.839 285.946 362.187 285.932 M 430.144 285.974 C 430.144 251.092 430.144 216.931 430.144 186.738 "/>
<path fill="none" stroke="#00883a" stroke-width="40" stroke-linecap="round" stroke-linejoin="round" d="M 360.263 378.278 C 383.557 378.313 406.851 378.347 430.145 378.382 C 430.145 349.580 430.144 317.311 430.144 285.974 C 407.492 285.960 384.839 285.946 362.187 285.932 M 369.882 186.852 C 389.970 186.814 410.057 186.776 430.144 186.738 C 430.144 122.460 430.144 71.204 430.145 71.188 C 430.132 71.188 289.398 73.442 289.383 73.442 C 289.383 73.481 289.383 457.633 289.383 457.672 C 289.378 457.683 223.822 531.250 232.947 567.021 C 244.882 613.811 322.380 653.192 370.592 650.466 C 414.202 647.999 478.462 605.840 486.990 563.001 C 493.955 528.018 430.150 458.582 430.145 458.572 C 430.145 458.564 430.145 414.290 430.145 378.382 M 430.144 285.974 C 430.144 251.092 430.144 216.931 430.144 186.738 "/>
<path fill="#00883a" fill-rule="evenodd" stroke="none" d="M 360.251 484.295 C 394.844 484.295 425.739 509.064 425.739 543.658 C 425.738 578.251 394.844 603.019 360.251 603.019 C 325.658 603.020 294.763 578.251 294.763 543.658 C 294.763 509.064 325.657 484.295 360.251 484.295 Z"/>
<path fill="none" stroke="#00883a" stroke-width="40" stroke-linecap="round" stroke-linejoin="round" d="M 294.763 543.658 C 294.763 509.064 325.657 484.295 360.251 484.295 C 394.844 484.295 425.739 509.064 425.739 543.658 C 425.738 578.251 394.844 603.019 360.251 603.019 C 325.658 603.020 294.763 578.251 294.763 543.658 "/>
</g>
</svg>
