<?xml version="1.0" encoding="utf-8"?>
<!-- Generator: Moho 13.0.2 build 610 -->
<!DOCTYPE svg PUBLIC "-//W3C//DTD SVG 1.1//EN" "http://www.w3.org/Graphics/SVG/1.1/DTD/svg11.dtd">
<svg version="1.1" id="Frame_1" xmlns="http://www.w3.org/2000/svg" xmlns:xlink="http://www.w3.org/1999/xlink" width="720px" height="720px">
<g id="Layer_1">
<path fill="none" stroke="#00883a" stroke-width="40" stroke-linecap="round" stroke-linejoin="round" d="M 246.228 559.210 C 246.228 559.172 246.228 171.870 246.228 171.832 C 246.257 171.824 532.852 97.936 532.881 97.929 C 532.881 97.983 532.881 633.059 532.881 633.113 C 532.852 633.106 246.257 559.218 246.228 559.210 "/>
<path fill="none" stroke="#00883a" stroke-width="40" stroke-linecap="round" stroke-linejoin="round" d="M 289.104 381.270 C 289.104 381.253 289.104 204.544 289.104 204.526 C 289.122 204.523 463.404 169.192 463.422 169.188 C 463.422 169.210 463.422 384.706 463.422 384.727 C 463.404 384.727 289.122 381.271 289.104 381.270 "/>
<path fill="none" stroke="#00883a" stroke-width="40" stroke-linecap="round" stroke-linejoin="round" d="M 289.104 520.392 C 289.104 520.384 289.104 436.274 289.104 436.265 C 289.122 436.267 463.404 451.792 463.422 451.794 C 463.422 451.804 463.422 554.376 463.422 554.387 C 463.404 554.383 289.122 520.396 289.104 520.392 "/>
<path fill="none" stroke="#00883a" stroke-width="40" stroke-linecap="round" stroke-linejoin="round" d="M 152.009 634.818 C 152.009 634.764 152.009 93.496 152.009 93.442 C 152.050 93.442 564.260 93.442 564.301 93.442 C 564.301 93.496 564.301 634.764 564.301 634.818 C 564.260 634.818 152.050 634.818 152.009 634.818 "/>
</g>
</svg>
