<?xml version="1.0" encoding="utf-8"?>
<!-- Generator: Moho 13.0.2 build 610 -->
<!DOCTYPE svg PUBLIC "-//W3C//DTD SVG 1.1//EN" "http://www.w3.org/Graphics/SVG/1.1/DTD/svg11.dtd">
<svg version="1.1" id="Frame_1" xmlns="http://www.w3.org/2000/svg" xmlns:xlink="http://www.w3.org/1999/xlink" width="720px" height="720px">
<g id="Layer_1">
<path fill="none" stroke="#00883a" stroke-width="40" stroke-linecap="round" stroke-linejoin="round" d="M 440.832 117.039 C 440.799 117.039 99.009 120.011 98.975 120.011 C 98.975 120.042 98.975 323.461 98.975 426.318 C 98.975 498.848 98.975 646.151 98.975 646.173 C 99.010 646.173 327.454 646.173 444.262 646.173 C 514.732 646.173 660.788 646.173 660.809 646.173 C 660.809 646.138 660.809 289.489 660.809 289.453 C 660.787 289.453 440.854 289.453 440.832 289.453 C 440.832 289.436 440.832 117.056 440.832 117.039 "/>
<path fill="none" stroke="#00883a" stroke-width="40" stroke-linecap="round" stroke-linejoin="round" d="M 444.262 646.173 C 444.357 574.664 444.548 431.668 444.548 431.646 M 440.832 117.039 C 440.799 117.039 99.009 120.011 98.975 120.011 C 98.975 120.042 98.975 323.461 98.975 426.318 C 98.975 498.848 98.975 646.151 98.975 646.173 C 99.010 646.173 327.454 646.173 444.262 646.173 C 514.732 646.173 660.788 646.173 660.809 646.173 C 660.809 646.138 660.809 289.489 660.809 289.453 C 660.787 289.453 440.854 289.453 440.832 289.453 C 440.832 289.436 440.832 117.056 440.832 117.039 "/>
<path fill="none" stroke="#00883a" stroke-width="40" stroke-linecap="round" stroke-linejoin="round" d="M 208.923 426.439 C 172.274 426.399 135.624 426.359 98.975 426.318 C 98.975 498.848 98.975 646.151 98.975 646.173 C 99.010 646.173 327.454 646.173 444.262 646.173 C 444.357 574.664 444.548 431.668 444.548 431.646 M 440.832 117.039 C 440.799 117.039 99.009 120.011 98.975 120.011 C 98.975 120.042 98.975 323.461 98.975 426.318 M 440.832 289.453 C 440.832 289.436 440.832 117.056 440.832 117.039 M 660.809 289.453 C 660.787 289.453 440.854 289.453 440.832 289.453 M 660.809 646.173 C 660.809 646.138 660.809 289.489 660.809 289.453 M 444.262 646.173 C 514.732 646.173 660.788 646.173 660.809 646.173 "/>
<path fill="none" stroke="#00883a" stroke-width="40" stroke-linecap="round" stroke-linejoin="round" d="M 444.262 646.173 C 444.357 574.664 444.548 431.668 444.548 431.646 C 444.539 431.646 385.426 429.369 355.865 428.231 M 208.923 426.439 C 172.274 426.399 135.624 426.359 98.975 426.318 C 98.975 498.848 98.975 646.151 98.975 646.173 C 99.010 646.173 327.454 646.173 444.262 646.173 C 514.732 646.173 660.788 646.173 660.809 646.173 C 660.809 646.138 660.809 289.489 660.809 289.453 C 660.787 289.453 440.854 289.453 440.832 289.453 C 440.832 289.436 440.832 117.056 440.832 117.039 C 440.799 117.039 99.009 120.011 98.975 120.011 C 98.975 120.042 98.975 323.461 98.975 426.318 "/>
</g>
</svg>
