<?xml version="1.0" encoding="utf-8"?>
<!-- Generator: Moho 13.0.2 build 610 -->
<!DOCTYPE svg PUBLIC "-//W3C//DTD SVG 1.1//EN" "http://www.w3.org/Graphics/SVG/1.1/DTD/svg11.dtd">
<svg version="1.1" id="Frame_1" xmlns="http://www.w3.org/2000/svg" xmlns:xlink="http://www.w3.org/1999/xlink" width="720px" height="720px">
<g id="Layer_1">
<path fill="none" stroke="#00883a" stroke-width="40" stroke-linecap="round" stroke-linejoin="round" d=""/>
<path fill="none" stroke="#00883a" stroke-width="40" stroke-linecap="round" stroke-linejoin="round" d=""/>
<path fill="none" stroke="#00883a" stroke-width="40" stroke-linecap="round" stroke-linejoin="round" d="M 72.610 360.261 C 168.931 360.709 361.544 361.606 361.572 361.606 C 361.544 361.606 217.199 360.562 72.610 360.261 "/>
<path fill="none" stroke="#00883a" stroke-width="40" stroke-linecap="round" stroke-linejoin="round" d="M 72.610 360.261 C 168.931 360.709 361.544 361.606 361.572 361.606 C 361.544 361.606 217.199 360.562 72.610 360.261 "/>
<path fill="none" stroke="#00883a" stroke-width="40" stroke-linecap="round" stroke-linejoin="round" d="M 171.174 360.046 C 153.653 338.809 136.132 317.572 118.612 296.334 "/>
<path fill="none" stroke="#00883a" stroke-width="40" stroke-linecap="round" stroke-linejoin="round" d="M 171.174 361.639 C 153.122 383.938 135.071 406.237 117.019 428.536 "/>
<path fill="none" stroke="#00883a" stroke-width="40" stroke-linecap="round" stroke-linejoin="round" d="M 361.259 75.960 C 361.259 266.943 361.259 648.852 361.259 648.910 "/>
<path fill="none" stroke="#00883a" stroke-width="40" stroke-linecap="round" stroke-linejoin="round" d="M 361.259 648.910 C 361.259 648.852 361.259 266.943 361.259 75.960 "/>
<path fill="none" stroke="#00883a" stroke-width="40" stroke-linecap="round" stroke-linejoin="round" d="M 361.259 75.960 C 361.259 266.943 361.259 648.852 361.259 648.910 C 361.259 648.852 361.259 266.943 361.259 75.960 "/>
<path fill="none" stroke="#00883a" stroke-width="40" stroke-linecap="round" stroke-linejoin="round" d="M 361.259 75.960 C 361.259 266.943 361.259 648.852 361.259 648.910 "/>
<path fill="none" stroke="#00883a" stroke-width="40" stroke-linecap="round" stroke-linejoin="round" d="M 361.259 648.910 C 361.259 648.852 361.259 266.943 361.259 75.960 "/>
<path fill="none" stroke="#00883a" stroke-width="40" stroke-linecap="round" stroke-linejoin="round" d="M 361.259 75.960 C 361.259 266.943 361.259 648.852 361.259 648.910 C 361.259 648.852 361.259 266.943 361.259 75.960 "/>
<path fill="none" stroke="#00883a" stroke-width="40" stroke-linecap="round" stroke-linejoin="round" d="M 359.881 174.524 C 337.582 156.473 315.283 138.421 292.984 120.370 "/>
<path fill="none" stroke="#00883a" stroke-width="40" stroke-linecap="round" stroke-linejoin="round" d="M 359.881 542.314 C 337.582 560.366 315.283 578.417 292.984 596.469 "/>
<path fill="none" stroke="#00883a" stroke-width="40" stroke-linecap="round" stroke-linejoin="round" d="M 158.054 566.541 C 158.074 566.520 293.733 429.918 361.572 361.606 "/>
<path fill="none" stroke="#00883a" stroke-width="40" stroke-linecap="round" stroke-linejoin="round" d="M 158.054 566.541 C 158.074 566.520 293.733 429.918 361.572 361.606 "/>
<path fill="none" stroke="#00883a" stroke-width="40" stroke-linecap="round" stroke-linejoin="round" d="M 233.580 491.318 C 236.208 518.724 238.836 546.130 241.464 573.536 "/>
<path fill="none" stroke="#00883a" stroke-width="40" stroke-linecap="round" stroke-linejoin="round" d="M 232.454 490.192 C 203.922 487.188 175.390 484.185 146.858 481.181 "/>
<path fill="none" stroke="#00883a" stroke-width="40" stroke-linecap="round" stroke-linejoin="round" d=""/>
<path fill="none" stroke="#00883a" stroke-width="40" stroke-linecap="round" stroke-linejoin="round" d=""/>
<path fill="none" stroke="#00883a" stroke-width="40" stroke-linecap="round" stroke-linejoin="round" d="M 163.733 157.203 C 229.792 225.126 361.889 360.952 361.909 360.972 "/>
<path fill="none" stroke="#00883a" stroke-width="40" stroke-linecap="round" stroke-linejoin="round" d="M 361.909 360.972 C 361.889 360.952 229.792 225.126 163.733 157.203 "/>
<path fill="none" stroke="#00883a" stroke-width="40" stroke-linecap="round" stroke-linejoin="round" d="M 163.733 157.203 C 229.792 225.126 361.889 360.952 361.909 360.972 C 361.889 360.952 229.792 225.126 163.733 157.203 "/>
<path fill="none" stroke="#00883a" stroke-width="40" stroke-linecap="round" stroke-linejoin="round" d="M 233.580 226.747 C 236.208 199.341 238.836 171.935 241.464 144.529 "/>
<path fill="none" stroke="#00883a" stroke-width="40" stroke-linecap="round" stroke-linejoin="round" d="M 232.455 227.873 C 203.922 230.876 175.390 233.880 146.858 236.883 "/>
<path fill="none" stroke="#00883a" stroke-width="40" stroke-linecap="round" stroke-linejoin="round" d="M 158.054 566.541 C 158.074 566.520 293.733 429.918 361.572 361.606 C 361.544 361.606 168.931 360.709 72.610 360.261 C 217.199 360.562 361.544 361.606 361.572 361.606 "/>
<path fill="none" stroke="#00883a" stroke-width="40" stroke-linecap="round" stroke-linejoin="round" d="M 363.828 539.084 C 362.291 439.272 364.412 294.058 363.828 174.908 C 468.031 174.908 549.995 257.309 549.995 356.996 C 549.995 456.682 468.031 539.084 363.828 539.084 "/>
<path fill="none" stroke="#00883a" stroke-width="40" stroke-linecap="round" stroke-linejoin="round" d="M 494.729 169.087 C 512.630 148.169 530.530 127.250 548.430 106.332 "/>
<path fill="none" stroke="#00883a" stroke-width="40" stroke-linecap="round" stroke-linejoin="round" d="M 564.676 246.606 C 588.425 232.677 612.173 218.748 635.921 204.819 "/>
<path fill="none" stroke="#00883a" stroke-width="40" stroke-linecap="round" stroke-linejoin="round" d="M 593.771 364.580 C 621.301 364.273 648.831 363.966 676.362 363.659 "/>
<path fill="none" stroke="#00883a" stroke-width="40" stroke-linecap="round" stroke-linejoin="round" d="M 559.910 473.754 C 583.658 487.683 607.407 501.612 631.155 515.541 "/>
<path fill="none" stroke="#00883a" stroke-width="40" stroke-linecap="round" stroke-linejoin="round" d="M 494.729 546.025 C 512.630 566.944 530.530 587.862 548.430 608.781 "/>
</g>
</svg>
