<?xml version="1.0" encoding="utf-8"?>
<!-- Generator: Moho 13.0.2 build 610 -->
<!DOCTYPE svg PUBLIC "-//W3C//DTD SVG 1.1//EN" "http://www.w3.org/Graphics/SVG/1.1/DTD/svg11.dtd">
<svg version="1.1" id="Frame_1" xmlns="http://www.w3.org/2000/svg" xmlns:xlink="http://www.w3.org/1999/xlink" width="720px" height="720px">
<g id="Layer_1">
<path fill="none" stroke="#00883a" stroke-width="40" stroke-linecap="round" stroke-linejoin="round" d="M 162.362 654.488 C 162.362 654.430 162.362 71.140 162.362 71.082 C 162.400 71.082 544.190 71.082 544.229 71.082 C 544.229 71.140 544.229 654.430 544.229 654.488 C 544.190 654.488 162.400 654.488 162.362 654.488 "/>
<path fill="none" stroke="#00883a" stroke-width="40" stroke-linecap="round" stroke-linejoin="round" d="M 260.481 444.992 C 260.481 444.960 260.481 121.499 260.481 121.467 C 260.499 121.467 443.440 121.467 443.458 121.467 C 443.458 121.499 443.458 444.960 443.458 444.992 C 443.440 444.992 260.499 444.992 260.481 444.992 "/>
<path fill="none" stroke="#00883a" stroke-width="40" stroke-linecap="round" stroke-linejoin="round" d="M 260.481 593.886 C 260.481 593.877 260.481 508.255 260.481 508.247 C 260.499 508.247 443.440 508.247 443.458 508.247 C 443.458 508.255 443.458 593.877 443.458 593.886 C 443.440 593.886 260.499 593.886 260.481 593.886 "/>
<path fill="none" stroke="#00883a" stroke-width="40" stroke-linecap="round" stroke-linejoin="round" d="M 483.722 391.013 C 483.722 378.805 493.570 368.956 505.778 368.956 C 517.986 368.956 527.834 378.805 527.834 391.013 C 527.834 403.220 517.986 413.069 505.778 413.069 C 493.570 413.069 483.722 403.220 483.722 391.013 "/>
</g>
</svg>
