<?xml version="1.0" encoding="utf-8"?>
<!-- Generator: Moho 13.0.2 build 610 -->
<!DOCTYPE svg PUBLIC "-//W3C//DTD SVG 1.1//EN" "http://www.w3.org/Graphics/SVG/1.1/DTD/svg11.dtd">
<svg version="1.1" id="Frame_1" xmlns="http://www.w3.org/2000/svg" xmlns:xlink="http://www.w3.org/1999/xlink" width="720px" height="720px">
<g id="Layer_1">
<path fill="none" stroke="#00883a" stroke-width="40" stroke-linecap="round" stroke-linejoin="round" d="M 72.610 360.261 C 263.593 360.261 645.502 360.261 645.559 360.261 "/>
<path fill="none" stroke="#00883a" stroke-width="40" stroke-linecap="round" stroke-linejoin="round" d="M 645.559 360.261 C 645.502 360.261 263.593 360.261 72.610 360.261 "/>
<path fill="none" stroke="#00883a" stroke-width="40" stroke-linecap="round" stroke-linejoin="round" d="M 72.610 360.261 C 263.593 360.261 645.502 360.261 645.559 360.261 C 645.502 360.261 263.593 360.261 72.610 360.261 "/>
<path fill="none" stroke="#00883a" stroke-width="40" stroke-linecap="round" stroke-linejoin="round" d="M 72.610 360.261 C 263.593 360.261 645.502 360.261 645.559 360.261 "/>
<path fill="none" stroke="#00883a" stroke-width="40" stroke-linecap="round" stroke-linejoin="round" d="M 645.559 360.261 C 645.502 360.261 263.593 360.261 72.610 360.261 "/>
<path fill="none" stroke="#00883a" stroke-width="40" stroke-linecap="round" stroke-linejoin="round" d="M 72.610 360.261 C 263.593 360.261 645.502 360.261 645.559 360.261 C 645.502 360.261 263.593 360.261 72.610 360.261 "/>
<path fill="none" stroke="#00883a" stroke-width="40" stroke-linecap="round" stroke-linejoin="round" d="M 171.174 360.046 C 153.653 338.809 136.132 317.572 118.612 296.334 "/>
<path fill="none" stroke="#00883a" stroke-width="40" stroke-linecap="round" stroke-linejoin="round" d="M 171.174 361.639 C 153.122 383.938 135.071 406.237 117.019 428.536 "/>
<path fill="none" stroke="#00883a" stroke-width="40" stroke-linecap="round" stroke-linejoin="round" d="M 538.964 360.046 C 556.484 338.809 574.005 317.572 591.526 296.334 "/>
<path fill="none" stroke="#00883a" stroke-width="40" stroke-linecap="round" stroke-linejoin="round" d="M 538.964 361.639 C 557.015 383.938 575.067 406.237 593.118 428.536 "/>
<path fill="none" stroke="#00883a" stroke-width="40" stroke-linecap="round" stroke-linejoin="round" d="M 361.259 75.960 C 361.259 266.943 361.259 648.852 361.259 648.910 "/>
<path fill="none" stroke="#00883a" stroke-width="40" stroke-linecap="round" stroke-linejoin="round" d="M 361.259 648.910 C 361.259 648.852 361.259 266.943 361.259 75.960 "/>
<path fill="none" stroke="#00883a" stroke-width="40" stroke-linecap="round" stroke-linejoin="round" d="M 361.259 75.960 C 361.259 266.943 361.259 648.852 361.259 648.910 C 361.259 648.852 361.259 266.943 361.259 75.960 "/>
<path fill="none" stroke="#00883a" stroke-width="40" stroke-linecap="round" stroke-linejoin="round" d="M 361.259 75.960 C 361.259 266.943 361.259 648.852 361.259 648.910 "/>
<path fill="none" stroke="#00883a" stroke-width="40" stroke-linecap="round" stroke-linejoin="round" d="M 361.259 648.910 C 361.259 648.852 361.259 266.943 361.259 75.960 "/>
<path fill="none" stroke="#00883a" stroke-width="40" stroke-linecap="round" stroke-linejoin="round" d="M 361.259 75.960 C 361.259 266.943 361.259 648.852 361.259 648.910 C 361.259 648.852 361.259 266.943 361.259 75.960 "/>
<path fill="none" stroke="#00883a" stroke-width="40" stroke-linecap="round" stroke-linejoin="round" d="M 361.474 174.524 C 382.711 157.003 403.948 139.483 425.185 121.962 "/>
<path fill="none" stroke="#00883a" stroke-width="40" stroke-linecap="round" stroke-linejoin="round" d="M 359.881 174.524 C 337.582 156.473 315.283 138.421 292.984 120.370 "/>
<path fill="none" stroke="#00883a" stroke-width="40" stroke-linecap="round" stroke-linejoin="round" d="M 361.474 542.314 C 382.711 559.835 403.948 577.356 425.185 594.876 "/>
<path fill="none" stroke="#00883a" stroke-width="40" stroke-linecap="round" stroke-linejoin="round" d="M 359.881 542.314 C 337.582 560.366 315.283 578.417 292.984 596.469 "/>
<path fill="none" stroke="#00883a" stroke-width="40" stroke-linecap="round" stroke-linejoin="round" d="M 563.190 161.405 C 428.145 296.450 158.095 566.500 158.054 566.541 "/>
<path fill="none" stroke="#00883a" stroke-width="40" stroke-linecap="round" stroke-linejoin="round" d="M 158.054 566.541 C 158.095 566.500 428.145 296.450 563.190 161.405 "/>
<path fill="none" stroke="#00883a" stroke-width="40" stroke-linecap="round" stroke-linejoin="round" d="M 563.190 161.405 C 428.145 296.450 158.095 566.500 158.054 566.541 C 158.095 566.500 428.145 296.450 563.190 161.405 "/>
<path fill="none" stroke="#00883a" stroke-width="40" stroke-linecap="round" stroke-linejoin="round" d="M 563.190 161.405 C 428.145 296.450 158.095 566.500 158.054 566.541 "/>
<path fill="none" stroke="#00883a" stroke-width="40" stroke-linecap="round" stroke-linejoin="round" d="M 158.054 566.541 C 158.095 566.500 428.145 296.450 563.190 161.405 "/>
<path fill="none" stroke="#00883a" stroke-width="40" stroke-linecap="round" stroke-linejoin="round" d="M 563.190 161.405 C 428.145 296.450 158.095 566.500 158.054 566.541 C 158.095 566.500 428.145 296.450 563.190 161.405 "/>
<path fill="none" stroke="#00883a" stroke-width="40" stroke-linecap="round" stroke-linejoin="round" d="M 493.647 231.251 C 521.053 233.879 548.459 236.507 575.865 239.135 "/>
<path fill="none" stroke="#00883a" stroke-width="40" stroke-linecap="round" stroke-linejoin="round" d="M 492.521 230.125 C 489.518 201.593 486.514 173.061 483.511 144.528 "/>
<path fill="none" stroke="#00883a" stroke-width="40" stroke-linecap="round" stroke-linejoin="round" d="M 233.580 491.318 C 236.208 518.724 238.836 546.130 241.464 573.536 "/>
<path fill="none" stroke="#00883a" stroke-width="40" stroke-linecap="round" stroke-linejoin="round" d="M 232.454 490.192 C 203.922 487.188 175.390 484.185 146.858 481.181 "/>
<path fill="none" stroke="#00883a" stroke-width="40" stroke-linecap="round" stroke-linejoin="round" d="M 163.733 157.203 C 298.779 292.249 568.829 562.299 568.870 562.339 "/>
<path fill="none" stroke="#00883a" stroke-width="40" stroke-linecap="round" stroke-linejoin="round" d="M 568.870 562.339 C 568.829 562.299 298.779 292.249 163.733 157.203 "/>
<path fill="none" stroke="#00883a" stroke-width="40" stroke-linecap="round" stroke-linejoin="round" d="M 163.733 157.203 C 298.779 292.249 568.829 562.299 568.870 562.339 C 568.829 562.299 298.779 292.249 163.733 157.203 "/>
<path fill="none" stroke="#00883a" stroke-width="40" stroke-linecap="round" stroke-linejoin="round" d="M 163.733 157.203 C 298.779 292.249 568.829 562.299 568.870 562.339 "/>
<path fill="none" stroke="#00883a" stroke-width="40" stroke-linecap="round" stroke-linejoin="round" d="M 568.870 562.339 C 568.829 562.299 298.779 292.249 163.733 157.203 "/>
<path fill="none" stroke="#00883a" stroke-width="40" stroke-linecap="round" stroke-linejoin="round" d="M 163.733 157.203 C 298.779 292.249 568.829 562.299 568.870 562.339 C 568.829 562.299 298.779 292.249 163.733 157.203 "/>
<path fill="none" stroke="#00883a" stroke-width="40" stroke-linecap="round" stroke-linejoin="round" d="M 233.580 226.747 C 236.208 199.341 238.836 171.935 241.464 144.529 "/>
<path fill="none" stroke="#00883a" stroke-width="40" stroke-linecap="round" stroke-linejoin="round" d="M 232.455 227.873 C 203.922 230.876 175.390 233.880 146.858 236.883 "/>
<path fill="none" stroke="#00883a" stroke-width="40" stroke-linecap="round" stroke-linejoin="round" d="M 493.647 486.814 C 521.053 484.186 548.459 481.557 575.865 478.929 "/>
<path fill="none" stroke="#00883a" stroke-width="40" stroke-linecap="round" stroke-linejoin="round" d="M 492.521 487.940 C 489.518 516.472 486.514 545.004 483.511 573.536 "/>
</g>
</svg>
