<?xml version="1.0" encoding="utf-8"?>
<!-- Generator: Moho 13.0.2 build 610 -->
<!DOCTYPE svg PUBLIC "-//W3C//DTD SVG 1.1//EN" "http://www.w3.org/Graphics/SVG/1.1/DTD/svg11.dtd">
<svg version="1.1" id="Frame_1" xmlns="http://www.w3.org/2000/svg" xmlns:xlink="http://www.w3.org/1999/xlink" width="720px" height="720px">
<g id="Layer_1">
<path fill="none" stroke="#00883a" stroke-width="40" stroke-linecap="round" stroke-linejoin="round" d="M 61.567 159.518 C 61.567 115.728 96.893 80.402 140.683 80.402 C 184.473 80.402 219.799 115.728 219.799 159.518 C 219.799 203.308 184.473 238.634 140.683 238.634 C 96.893 238.634 61.567 203.308 61.567 159.518 "/>
<path fill="none" stroke="#00883a" stroke-width="40" stroke-linecap="round" stroke-linejoin="round" d="M 284.787 159.518 C 284.787 115.728 320.113 80.402 363.903 80.402 C 407.693 80.402 443.019 115.728 443.019 159.518 C 443.019 203.308 407.693 238.634 363.903 238.634 C 320.113 238.634 284.787 203.308 284.787 159.518 "/>
<path fill="none" stroke="#00883a" stroke-width="40" stroke-linecap="round" stroke-linejoin="round" d="M 508.007 159.518 C 508.007 115.728 543.333 80.402 587.123 80.402 C 630.913 80.402 666.239 115.728 666.239 159.518 C 666.239 203.308 630.913 238.634 587.123 238.634 C 543.333 238.633 508.007 203.308 508.007 159.518 "/>
<path fill="none" stroke="#00883a" stroke-width="40" stroke-linecap="round" stroke-linejoin="round" d="M 61.567 560.748 C 61.567 516.958 96.893 481.633 140.683 481.633 C 184.473 481.632 219.799 516.958 219.799 560.748 C 219.799 604.538 184.473 639.864 140.683 639.864 C 96.893 639.864 61.567 604.538 61.567 560.748 "/>
<path fill="none" stroke="#00883a" stroke-width="40" stroke-linecap="round" stroke-linejoin="round" d="M 284.787 560.748 C 284.787 516.958 320.113 481.633 363.903 481.633 C 407.693 481.633 443.019 516.958 443.019 560.748 C 443.019 604.538 407.693 639.864 363.903 639.864 C 320.113 639.864 284.787 604.538 284.787 560.748 "/>
<path fill="none" stroke="#00883a" stroke-width="40" stroke-linecap="round" stroke-linejoin="round" d="M 508.007 560.748 C 508.007 516.958 543.333 481.633 587.123 481.633 C 630.913 481.632 666.239 516.958 666.239 560.748 C 666.239 604.538 630.913 639.864 587.123 639.864 C 543.333 639.864 508.007 604.538 508.007 560.748 "/>
<path fill="none" stroke="#00883a" stroke-width="40" stroke-linecap="round" stroke-linejoin="round" d="M 171.764 362.958 C 171.764 319.169 207.090 283.843 250.880 283.843 C 294.670 283.843 329.996 319.168 329.996 362.958 C 329.996 406.749 294.670 442.075 250.880 442.075 C 207.090 442.074 171.764 406.749 171.764 362.958 "/>
<path fill="none" stroke="#00883a" stroke-width="40" stroke-linecap="round" stroke-linejoin="round" d="M 394.984 362.958 C 394.984 319.169 430.310 283.843 474.100 283.843 C 517.890 283.843 553.216 319.169 553.216 362.958 C 553.216 406.749 517.890 442.075 474.100 442.075 C 430.310 442.075 394.984 406.749 394.984 362.958 "/>
</g>
</svg>
